# xmcd
#
# Track frame offsets: 
#        150
#        19466
#        38637
#        53844
#        64191
#        82921
#        103335
#        117182
#        136720
#        155487
#        172033
#        193455
#        212922
#
# Disc length: 3117 seconds
#
# Revision: 0
# Processed by: cddbd v1.5.2PL0 Copyright (c) Steve Scherf et al.
# Submitted via: ExactAudioCopy v0.95b4
#
DISCID=ba0c2b0d
DTITLE=Tim O'Brien and Darrell Scott - Real Time
DYEAR=2000
DGENRE=Country
TTITLE0=Walk Beside Me
TTITLE1=With A Memory Like Mine
TTITLE2=Weary Blues From Waiting
TTITLE3=A House Of Gold
TTITLE4=More Love
TTITLE5=There Ain't No Easy Way
TTITLE6=Little Sadie
TTITLE7=Helen Of Troy, Pennsylvania
TTITLE8=Five Rooms
TTITLE9=Long Time Gone
TTITLE10=I'm Not Gonna Forget You
TTITLE11=Keep Your Lamp Trimmed And Burnin'
TTITLE12=The Second Mouse
EXTD=
EXTT0=
EXTT1=
EXTT2=
EXTT3=
EXTT4=
EXTT5=
EXTT6=
EXTT7=
EXTT8=
EXTT9=
EXTT10=
EXTT11=
EXTT12=
PLAYORDER=
